<svg width="30" height="22" viewBox="0 0 30 22" fill="none" xmlns="http://www.w3.org/2000/svg">
<path fill-rule="evenodd" clip-rule="evenodd" d="M21.6667 0.333313C22.684 0.333313 23.5258 0.91242 24.1414 1.51879C24.7831 2.15089 25.3703 2.99837 25.8928 3.93226C26.9424 5.80831 27.8555 8.25761 28.4602 10.6766C29.0608 13.079 29.3914 15.586 29.1799 17.5586C28.9679 19.538 27.9482 21.6666 25.6667 21.6666C23.6983 21.6666 22.1308 20.6532 20.8477 19.6247L20.3796 19.2403L19.7244 18.6865L19.1319 18.1956C17.7742 17.0955 16.5662 16.3333 15 16.3333C13.4339 16.3333 12.2259 17.0955 10.8681 18.1956L10.2756 18.6865L9.62047 19.2403L9.1524 19.6247C7.86927 20.6532 6.30181 21.6666 4.3334 21.6666C2.052 21.6666 1.0323 19.538 0.820242 17.5586C0.608882 15.586 0.939349 13.079 1.53995 10.6766C2.14467 8.25762 3.05766 5.80833 4.10734 3.93227C4.62987 2.99837 5.21695 2.15089 5.85871 1.51879C6.47436 0.912406 7.31603 0.333313 8.3334 0.333313C9.02064 0.333313 9.69038 0.49711 10.3512 0.692868L11.1406 0.934681C11.2716 0.974728 11.4024 1.01394 11.533 1.05127C12.6871 1.38099 13.8667 1.66665 15 1.66665C16.1334 1.66665 17.313 1.38099 18.4671 1.05129L19.6464 0.694488C20.3104 0.498547 20.9871 0.333313 21.6667 0.333313ZM21.6672 3.00037C21.156 3.00037 20.6225 3.15415 20.1051 3.32352L19.4945 3.52538C19.3948 3.55733 19.2965 3.58768 19.1996 3.61534C18.0203 3.9523 16.5332 4.33331 15 4.33331C13.4668 4.33331 11.9798 3.9523 10.8005 3.61535L10.5058 3.52541L9.89529 3.32346C9.37797 3.15397 8.84438 2.99998 8.3334 2.99998C7.77587 3.1036 7.27576 3.77972 6.89896 4.40722L6.68821 4.77291L6.4345 5.23435C5.52587 6.8583 4.6889 9.07571 4.12699 11.3233C3.60138 13.4258 3.34583 15.4382 3.44301 16.9379L3.47738 17.3278L3.50364 17.5623L3.54418 17.8405C3.63585 18.3749 3.83459 19 4.3334 19C5.41651 19 6.31884 18.4614 7.44411 17.5675L7.98077 17.1304L8.99344 16.2823L9.45348 15.9091C10.8722 14.7854 12.6464 13.6666 15 13.6666C17.3538 13.6666 19.128 14.7854 20.5466 15.9091L21.0067 16.2823L22.0193 17.1304L22.5559 17.5675C23.6812 18.4614 24.5836 19 25.6667 19C26.1202 19 26.3257 18.4834 26.4282 17.988L26.4785 17.6975L26.5284 17.2746C26.6922 15.7473 26.4392 13.5876 25.8732 11.3233C25.3581 9.26301 24.6119 7.22809 23.7912 5.65239L23.312 4.77302L23.1013 4.4074C22.7246 3.78002 22.2247 3.10401 21.6672 3.00037ZM10.3334 5.66665C12.1743 5.66665 13.6667 7.15903 13.6667 8.99998C13.6667 10.8409 12.1743 12.3333 10.3334 12.3333C8.49243 12.3333 7.00004 10.8409 7.00004 8.99998C7.00004 7.15903 8.49243 5.66665 10.3334 5.66665ZM19.6667 5.66665C20.3505 5.66665 20.9141 6.18137 20.9911 6.84449L21 6.99998V7.66665H21.6667C22.4031 7.66665 23 8.26361 23 8.99998C23 9.68378 22.4853 10.2473 21.8222 10.3243L21.6667 10.3333H21V11C21 11.7364 20.4031 12.3333 19.6667 12.3333C18.9829 12.3333 18.4194 11.8186 18.3423 11.1555L18.3334 11V10.3333H17.6667C16.9303 10.3333 16.3334 9.73638 16.3334 8.99998C16.3334 8.3162 16.8481 7.75264 17.5112 7.67562L17.6667 7.66665H18.3334V6.99998C18.3334 6.26361 18.9303 5.66665 19.6667 5.66665ZM10.3334 8.33331C9.96519 8.33331 9.66671 8.63185 9.66671 8.99998C9.66671 9.36811 9.96519 9.66665 10.3334 9.66665C10.7016 9.66665 11 9.36811 11 8.99998C11 8.63185 10.7016 8.33331 10.3334 8.33331Z" fill="white"/>
</svg>
