<svg width="28" height="24" viewBox="0 0 28 24" fill="none" xmlns="http://www.w3.org/2000/svg">
<path fill-rule="evenodd" clip-rule="evenodd" d="M10.5962 0.140751C11.2549 0.47007 11.5218 1.27097 11.1925 1.9296L8.15734 7.99999H19.8426L16.8074 1.9296C16.4781 1.27097 16.745 0.47007 17.4037 0.140751C18.0623 -0.188568 18.8632 0.0783975 19.1925 0.737035L22.824 7.99999H26C26.7363 7.99999 27.3333 8.59694 27.3333 9.33332C27.3333 10.0697 26.7363 10.6667 26 10.6667H25.7597L23.9934 19.4983L23.9934 19.4983L23.9843 19.5436C23.8698 20.1162 23.7699 20.6155 23.6556 21.026C23.5338 21.4635 23.373 21.8895 23.0938 22.2895L23.0937 22.2897C22.6717 22.8941 22.0909 23.37 21.4157 23.6652C20.9687 23.8606 20.5194 23.9347 20.0665 23.9684C19.6413 24 19.1317 24 18.5473 24H9.45259C8.86821 24 8.35862 24 7.93341 23.9684C7.48049 23.9347 7.0312 23.8606 6.58419 23.6652C5.90887 23.37 5.32814 22.894 4.90619 22.2896C4.62695 21.8896 4.46611 21.4635 4.34428 21.0261C4.22992 20.6154 4.13002 20.1158 4.01545 19.5429L4.00653 19.4983L2.24022 10.6667H1.99996C1.26358 10.6667 0.666626 10.0697 0.666626 9.33332C0.666626 8.59694 1.26358 7.99999 1.99996 7.99999H5.17591L8.80739 0.737035C9.13671 0.0783975 9.93761 -0.188568 10.5962 0.140751ZM4.9597 10.6667L6.62141 18.9753C6.74744 19.6054 6.82861 20.0069 6.91321 20.3107C6.99331 20.5984 7.05304 20.7063 7.09278 20.7632C7.23336 20.9646 7.42693 21.1233 7.65217 21.2217L7.65224 21.2217C7.71585 21.2495 7.83337 21.287 8.13109 21.3091C8.44559 21.3325 8.85516 21.3333 9.49779 21.3333H18.5021C19.1447 21.3333 19.5543 21.3325 19.8688 21.3091C20.1665 21.287 20.284 21.2495 20.3477 21.2217C20.573 21.1233 20.7666 20.9645 20.9073 20.7631C20.947 20.7061 21.0067 20.5981 21.0867 20.3107C21.1713 20.0069 21.2525 19.6054 21.3785 18.9753L21.3785 18.9752L23.0402 10.6667H4.9597ZM9.99996 12C10.7363 12 11.3333 12.5969 11.3333 13.3333V17.3333C11.3333 18.0697 10.7363 18.6667 9.99996 18.6667C9.26358 18.6667 8.66663 18.0697 8.66663 17.3333V13.3333C8.66663 12.5969 9.26358 12 9.99996 12ZM14 12C14.7363 12 15.3333 12.5969 15.3333 13.3333V17.3333C15.3333 18.0697 14.7363 18.6667 14 18.6667C13.2636 18.6667 12.6666 18.0697 12.6666 17.3333V13.3333C12.6666 12.5969 13.2636 12 14 12ZM18 12C18.7363 12 19.3333 12.5969 19.3333 13.3333V17.3333C19.3333 18.0697 18.7363 18.6667 18 18.6667C17.2636 18.6667 16.6666 18.0697 16.6666 17.3333V13.3333C16.6666 12.5969 17.2636 12 18 12Z" fill="white"/>
</svg>
