<svg width="27" height="28" viewBox="0 0 27 28" fill="none" xmlns="http://www.w3.org/2000/svg">
<path d="M24.5333 14.88C24.3195 14.6367 24.2016 14.3239 24.2016 14C24.2016 13.6761 24.3195 13.3633 24.5333 13.12L26.2399 11.2C26.428 10.9902 26.5448 10.7263 26.5735 10.446C26.6023 10.1657 26.5415 9.88358 26.3999 9.64L23.7333 5.02667C23.5931 4.78336 23.3798 4.5905 23.1236 4.47558C22.8674 4.36066 22.5815 4.32955 22.3066 4.38667L19.7999 4.89334C19.481 4.95924 19.1489 4.90612 18.8665 4.744C18.584 4.58188 18.3706 4.32198 18.2666 4.01334L17.4533 1.57334C17.3638 1.30851 17.1934 1.07849 16.9661 0.915792C16.7388 0.753094 16.4661 0.665948 16.1866 0.666669H10.8533C10.5625 0.651493 10.2748 0.731904 10.034 0.895621C9.79327 1.05934 9.61271 1.29736 9.51994 1.57334L8.77328 4.01334C8.66928 4.32198 8.45591 4.58188 8.17343 4.744C7.89095 4.90612 7.5589 4.95924 7.23994 4.89334L4.66661 4.38667C4.40601 4.34984 4.14034 4.39097 3.90307 4.50486C3.6658 4.61874 3.46754 4.80031 3.33328 5.02667L0.66661 9.64C0.52149 9.88087 0.456239 10.1614 0.480187 10.4416C0.504134 10.7218 0.616053 10.9873 0.799943 11.2L2.49328 13.12C2.70704 13.3633 2.82492 13.6761 2.82492 14C2.82492 14.3239 2.70704 14.6367 2.49328 14.88L0.799943 16.8C0.616053 17.0127 0.504134 17.2782 0.480187 17.5584C0.456239 17.8386 0.52149 18.1191 0.66661 18.36L3.33328 22.9733C3.47341 23.2166 3.68677 23.4095 3.94295 23.5244C4.19912 23.6393 4.48504 23.6705 4.75994 23.6133L7.26661 23.1067C7.58557 23.0408 7.91761 23.0939 8.20009 23.256C8.48257 23.4181 8.69594 23.678 8.79994 23.9867L9.61328 26.4267C9.70605 26.7026 9.8866 26.9407 10.1274 27.1044C10.3681 27.2681 10.6559 27.3485 10.9466 27.3333H16.2799C16.5595 27.3341 16.8321 27.2469 17.0594 27.0842C17.2867 26.9215 17.4572 26.6915 17.5466 26.4267L18.3599 23.9867C18.4639 23.678 18.6773 23.4181 18.9598 23.256C19.2423 23.0939 19.5743 23.0408 19.8933 23.1067L22.3999 23.6133C22.6748 23.6705 22.9608 23.6393 23.2169 23.5244C23.4731 23.4095 23.6865 23.2166 23.8266 22.9733L26.4933 18.36C26.6348 18.1164 26.6956 17.8343 26.6669 17.554C26.6381 17.2737 26.5213 17.0098 26.3333 16.8L24.5333 14.88ZM22.5466 16.6667L23.6133 17.8667L21.9066 20.8267L20.3333 20.5067C19.373 20.3104 18.374 20.4735 17.5261 20.9651C16.6781 21.4566 16.0401 22.2425 15.7333 23.1733L15.2266 24.6667H11.8133L11.3333 23.1467C11.0264 22.2158 10.3885 21.43 9.54048 20.9384C8.69251 20.4468 7.69357 20.2837 6.73328 20.48L5.15994 20.8L3.42661 17.8533L4.49328 16.6533C5.14922 15.92 5.51185 14.9706 5.51185 13.9867C5.51185 13.0028 5.14922 12.0534 4.49328 11.32L3.42661 10.12L5.13328 7.18667L6.70661 7.50667C7.6669 7.70297 8.66585 7.53984 9.51381 7.04827C10.3618 6.55669 10.9997 5.77088 11.3066 4.84L11.8133 3.33334H15.2266L15.7333 4.85334C16.0401 5.78421 16.6781 6.57002 17.5261 7.0616C18.374 7.55318 19.373 7.7163 20.3333 7.52L21.9066 7.2L23.6133 10.16L22.5466 11.36C21.898 12.0917 21.5399 13.0356 21.5399 14.0133C21.5399 14.9911 21.898 15.935 22.5466 16.6667ZM13.5199 8.66667C12.4651 8.66667 11.434 8.97946 10.5569 9.5655C9.67984 10.1515 8.99625 10.9845 8.59258 11.959C8.18892 12.9336 8.0833 14.0059 8.28909 15.0405C8.49487 16.075 9.00283 17.0254 9.74871 17.7712C10.4946 18.5171 11.4449 19.0251 12.4795 19.2309C13.514 19.4366 14.5864 19.331 15.5609 18.9274C16.5355 18.5237 17.3684 17.8401 17.9544 16.963C18.5405 16.086 18.8533 15.0548 18.8533 14C18.8533 12.5855 18.2914 11.229 17.2912 10.2288C16.291 9.22857 14.9344 8.66667 13.5199 8.66667ZM13.5199 16.6667C12.9925 16.6667 12.477 16.5103 12.0384 16.2173C11.5999 15.9242 11.2581 15.5078 11.0563 15.0205C10.8544 14.5332 10.8016 13.997 10.9045 13.4798C11.0074 12.9625 11.2614 12.4873 11.6343 12.1144C12.0073 11.7414 12.4824 11.4875 12.9997 11.3846C13.517 11.2817 14.0532 11.3345 14.5404 11.5363C15.0277 11.7382 15.4442 12.08 15.7372 12.5185C16.0302 12.957 16.1866 13.4726 16.1866 14C16.1866 14.7072 15.9057 15.3855 15.4056 15.8856C14.9055 16.3857 14.2272 16.6667 13.5199 16.6667Z" fill="white"/>
</svg>
