<svg width="36" height="36" viewBox="0 0 36 36" fill="none" xmlns="http://www.w3.org/2000/svg">
<path fill-rule="evenodd" clip-rule="evenodd" d="M18 8.66667C16.7743 8.66667 15.5607 8.90808 14.4283 9.37712C13.2959 9.84617 12.267 10.5337 11.4003 11.4003C10.5337 12.267 9.84617 13.2959 9.37712 14.4283C8.90808 15.5607 8.66667 16.7743 8.66667 18C8.66667 19.2257 8.90808 20.4393 9.37712 21.5717C9.84617 22.7041 10.5337 23.733 11.4003 24.5997C12.267 25.4663 13.2959 26.1538 14.4283 26.6229C15.5607 27.0919 16.7743 27.3333 18 27.3333C20.4754 27.3333 22.8493 26.35 24.5997 24.5997C26.35 22.8493 27.3333 20.4754 27.3333 18C27.3333 15.5246 26.35 13.1507 24.5997 11.4003C22.8493 9.65 20.4754 8.66667 18 8.66667ZM6 18C6 14.8174 7.26428 11.7652 9.51472 9.51472C11.7652 7.26428 14.8174 6 18 6C21.1826 6 24.2348 7.26428 26.4853 9.51472C28.7357 11.7652 30 14.8174 30 18C30 21.1826 28.7357 24.2348 26.4853 26.4853C24.2348 28.7357 21.1826 30 18 30C14.8174 30 11.7652 28.7357 9.51472 26.4853C7.26428 24.2348 6 21.1826 6 18ZM16.6667 12.6667C16.6667 12.313 16.8071 11.9739 17.0572 11.7239C17.3072 11.4738 17.6464 11.3333 18 11.3333H18.0133C18.367 11.3333 18.7061 11.4738 18.9561 11.7239C19.2062 11.9739 19.3467 12.313 19.3467 12.6667C19.3467 13.0203 19.2062 13.3594 18.9561 13.6095C18.7061 13.8595 18.367 14 18.0133 14H18C17.6464 14 17.3072 13.8595 17.0572 13.6095C16.8071 13.3594 16.6667 13.0203 16.6667 12.6667ZM16.68 23.3333C16.68 23.687 16.8205 24.0261 17.0705 24.2761C17.3206 24.5262 17.6597 24.6667 18.0133 24.6667C18.367 24.6667 18.7061 24.5262 18.9561 24.2761C19.2062 24.0261 19.3467 23.687 19.3467 23.3333V16.6667C19.3467 16.313 19.2062 15.9739 18.9561 15.7239C18.7061 15.4738 18.367 15.3333 18.0133 15.3333C17.6597 15.3333 17.3206 15.4738 17.0705 15.7239C16.8205 15.9739 16.68 16.313 16.68 16.6667V23.3333Z" fill="white"/>
</svg>
